<svg width="23" height="23" viewBox="0 0 23 23" fill="none" xmlns="http://www.w3.org/2000/svg">
<path d="M11.5 0C5.17949 0 0 5.17949 0 11.5C0 17.8205 5.17949 23 11.5 23C17.8205 23 23 17.8205 23 11.5C23 5.17949 17.8205 0 11.5 0Z" fill="#FF3636"/>
<path d="M23 11.5C23 17.8205 17.8205 23 11.5 23V0C17.8205 0 23 5.17949 23 11.5Z" fill="#F40000"/>
<path d="M13.4001 11.5L17.2141 15.3139L15.3139 17.2141L11.5 13.4002L7.6861 17.2141L5.78595 15.3139L9.59985 11.5L5.78595 7.6861L7.6861 5.78596L11.5 9.59986L15.3139 5.78596L17.2141 7.6861L13.4001 11.5Z" fill="#E7E7E7"/>
<path d="M13.4001 11.5L17.2141 15.3139L15.3139 17.2141L11.5 13.4002V9.59986L15.3139 5.78596L17.2141 7.6861L13.4001 11.5Z" fill="#D3D3D8"/>
</svg>
