<svg width="28" height="29" viewBox="0 0 28 29" fill="none" xmlns="http://www.w3.org/2000/svg">
<rect width="28" height="29" rx="14" fill="url(#paint0_linear)"/>
<path d="M10.375 11H8.125V9.875H10C10.0995 9.875 10.1948 9.91451 10.2652 9.98483C10.3355 10.0552 10.375 10.1505 10.375 10.25V11Z" fill="#D8595A"/>
<path d="M15.625 11H17.875V9.875H16C15.9005 9.875 15.8052 9.91451 15.7348 9.98483C15.6645 10.0552 15.625 10.1505 15.625 10.25V11Z" fill="#D8595A"/>
<path d="M20.125 17.375V11H5.875V17.375L5.125 20H7.5693C7.96595 20 8.35555 19.8951 8.69861 19.696C9.04168 19.497 9.32602 19.2107 9.52281 18.8663L10.186 17.7057C10.2434 17.6052 10.3264 17.5217 10.4265 17.4636C10.5265 17.4056 10.6402 17.375 10.7559 17.375H15.2441C15.3598 17.375 15.4735 17.4056 15.5735 17.4636C15.6736 17.5217 15.7566 17.6052 15.814 17.7057L16.4772 18.8663C16.674 19.2107 16.9583 19.4969 17.3014 19.696C17.6444 19.8951 18.034 20 18.4307 20H20.875L20.125 17.375Z" fill="url(#paint1_radial)"/>
<path d="M11.125 13.25H10.375V12.5H8.875V13.25H8.125V14.75H8.875V15.5H10.375V14.75H11.125V13.25Z" fill="url(#paint2_radial)"/>
<path d="M14.5 14.75C14.9142 14.75 15.25 14.4142 15.25 14C15.25 13.5858 14.9142 13.25 14.5 13.25C14.0858 13.25 13.75 13.5858 13.75 14C13.75 14.4142 14.0858 14.75 14.5 14.75Z" fill="#FBB540"/>
<path d="M16 13.25C16.4142 13.25 16.75 12.9142 16.75 12.5C16.75 12.0858 16.4142 11.75 16 11.75C15.5858 11.75 15.25 12.0858 15.25 12.5C15.25 12.9142 15.5858 13.25 16 13.25Z" fill="#2AD3B3"/>
<path d="M16 16.25C16.4142 16.25 16.75 15.9142 16.75 15.5C16.75 15.0858 16.4142 14.75 16 14.75C15.5858 14.75 15.25 15.0858 15.25 15.5C15.25 15.9142 15.5858 16.25 16 16.25Z" fill="#FAA6B2"/>
<path d="M17.5 14.75C17.9142 14.75 18.25 14.4142 18.25 14C18.25 13.5858 17.9142 13.25 17.5 13.25C17.0858 13.25 16.75 13.5858 16.75 14C16.75 14.4142 17.0858 14.75 17.5 14.75Z" fill="#2CBFF4"/>
<path d="M4.75 21.5L6.625 18.875C6.96675 18.7611 7.27232 18.5588 7.51072 18.2888C7.74913 18.0187 7.9119 17.6904 7.98255 17.3372L8.125 16.625L8.93936 15.8106C9.03785 15.7121 9.11597 15.5952 9.16927 15.4665C9.22257 15.3379 9.25 15.1999 9.25 15.0606C9.24999 14.7793 9.13824 14.5096 8.93933 14.3107C8.74043 14.1118 8.47065 14 8.18936 14H8.12205C7.88121 14 7.64754 14.082 7.45947 14.2324L5.875 15.5V12.5L7 11H8.875V10.3438C8.875 10.12 8.78611 9.90536 8.62787 9.74713C8.46964 9.58889 8.25503 9.5 8.03125 9.5H6.27194C6.03317 9.49999 5.79786 9.55698 5.58555 9.66623C5.37325 9.77548 5.19009 9.93384 5.05131 10.1281L3.90442 11.7338C3.7227 11.9882 3.625 12.2931 3.625 12.6057V16.625L2.125 18.875L4.75 21.5Z" fill="url(#paint3_linear)"/>
<path d="M21.25 21.5L19.375 18.875C19.0332 18.7611 18.7277 18.5588 18.4893 18.2888C18.2509 18.0187 18.0881 17.6904 18.0175 17.3372L17.875 16.625L17.0606 15.8106C16.9622 15.7121 16.884 15.5952 16.8307 15.4665C16.7774 15.3379 16.75 15.1999 16.75 15.0606C16.75 14.7793 16.8618 14.5096 17.0607 14.3107C17.2596 14.1118 17.5293 14 17.8106 14H17.878C18.1188 14 18.3525 14.082 18.5405 14.2324L20.125 15.5V12.5L19 11H17.125V10.3438C17.125 10.12 17.2139 9.90536 17.3721 9.74713C17.5304 9.58889 17.745 9.5 17.9688 9.5H19.7281C19.9668 9.49999 20.2021 9.55698 20.4144 9.66623C20.6267 9.77548 20.8099 9.93384 20.9487 10.1281L22.0956 11.7338C22.2773 11.9882 22.375 12.2931 22.375 12.6057V16.625L23.875 18.875L21.25 21.5Z" fill="url(#paint4_linear)"/>
<path d="M12.25 16.25H11.5C11.4005 16.25 11.3052 16.2105 11.2348 16.1402C11.1645 16.0698 11.125 15.9745 11.125 15.875C11.125 15.7755 11.1645 15.6802 11.2348 15.6098C11.3052 15.5395 11.4005 15.5 11.5 15.5H12.25C12.3495 15.5 12.4448 15.5395 12.5152 15.6098C12.5855 15.6802 12.625 15.7755 12.625 15.875C12.625 15.9745 12.5855 16.0698 12.5152 16.1402C12.4448 16.2105 12.3495 16.25 12.25 16.25Z" fill="url(#paint5_radial)"/>
<path d="M14.5 16.25H13.75C13.6505 16.25 13.5552 16.2105 13.4848 16.1402C13.4145 16.0698 13.375 15.9745 13.375 15.875C13.375 15.7755 13.4145 15.6802 13.4848 15.6098C13.5552 15.5395 13.6505 15.5 13.75 15.5H14.5C14.5995 15.5 14.6948 15.5395 14.7652 15.6098C14.8355 15.6802 14.875 15.7755 14.875 15.875C14.875 15.9745 14.8355 16.0698 14.7652 16.1402C14.6948 16.2105 14.5995 16.25 14.5 16.25Z" fill="url(#paint6_radial)"/>
<path d="M14.125 11H11.875L12.25 9.875H13.75L14.125 11Z" fill="url(#paint7_radial)"/>
<path d="M3.99972 9.125C3.93581 9.12496 3.87297 9.10858 3.81717 9.07743C3.76136 9.04628 3.71445 9.00138 3.68088 8.94699C3.6473 8.89261 3.62818 8.83055 3.62534 8.76671C3.62249 8.70286 3.63601 8.63934 3.66461 8.58219C3.80758 8.29386 4.02848 8.05136 4.30225 7.88218C4.57602 7.713 4.89172 7.62391 5.21355 7.625H5.5C5.59946 7.625 5.69484 7.66451 5.76516 7.73484C5.83549 7.80516 5.875 7.90055 5.875 8C5.875 8.09946 5.83549 8.19484 5.76516 8.26517C5.69484 8.33549 5.59946 8.375 5.5 8.375H5.21355C5.03109 8.37439 4.8521 8.42491 4.69689 8.52084C4.54168 8.61676 4.41645 8.75425 4.33539 8.91772C4.30422 8.98005 4.25631 9.03246 4.19702 9.06907C4.13772 9.10568 4.0694 9.12505 3.99972 9.125Z" fill="#FBB540"/>
<path d="M3.24972 8C3.18581 7.99996 3.12297 7.98358 3.06717 7.95243C3.01136 7.92128 2.96445 7.87638 2.93088 7.82199C2.8973 7.76761 2.87818 7.70555 2.87534 7.64171C2.87249 7.57786 2.88601 7.51434 2.91461 7.45719C3.05758 7.16886 3.27848 6.92636 3.55225 6.75718C3.82602 6.588 4.14172 6.49891 4.46355 6.5H4.75C4.84946 6.5 4.94484 6.53951 5.01517 6.60984C5.08549 6.68016 5.125 6.77555 5.125 6.875C5.125 6.97446 5.08549 7.06984 5.01517 7.14017C4.94484 7.21049 4.84946 7.25 4.75 7.25H4.46355C4.28109 7.24939 4.10211 7.29991 3.94689 7.39584C3.79168 7.49176 3.66645 7.62925 3.58539 7.79272C3.55422 7.85505 3.50631 7.90746 3.44702 7.94407C3.38772 7.98068 3.3194 8.00005 3.24972 8Z" fill="#FBB540"/>
<path d="M22.0003 9.12501C21.9306 9.12505 21.8623 9.10567 21.803 9.06904C21.7437 9.03241 21.6958 8.97998 21.6646 8.91764C21.5835 8.75418 21.4583 8.61671 21.3031 8.52081C21.1479 8.4249 20.9689 8.37439 20.7865 8.37501H20.5C20.4005 8.37501 20.3052 8.3355 20.2348 8.26518C20.1645 8.19485 20.125 8.09947 20.125 8.00001C20.125 7.90055 20.1645 7.80517 20.2348 7.73484C20.3052 7.66452 20.4005 7.62501 20.5 7.62501H20.7865C21.1083 7.62392 21.424 7.71303 21.6978 7.88223C21.9715 8.05143 22.1924 8.29395 22.3354 8.58229C22.364 8.63944 22.3775 8.70295 22.3746 8.76678C22.3718 8.83061 22.3526 8.89266 22.3191 8.94703C22.2855 9.0014 22.2386 9.04628 22.1828 9.07743C22.127 9.10858 22.0642 9.12496 22.0003 9.12501Z" fill="#FBB540"/>
<path d="M22.7503 8.00001C22.6806 8.00005 22.6123 7.98067 22.553 7.94404C22.4937 7.90741 22.4458 7.85498 22.4146 7.79263C22.3335 7.62918 22.2083 7.49171 22.0531 7.39581C21.8979 7.2999 21.7189 7.24939 21.5365 7.25001H21.25C21.1505 7.25001 21.0552 7.2105 20.9848 7.14017C20.9145 7.06985 20.875 6.97447 20.875 6.87501C20.875 6.77555 20.9145 6.68017 20.9848 6.60984C21.0552 6.53952 21.1505 6.50001 21.25 6.50001H21.5365C21.8583 6.49892 22.174 6.58803 22.4478 6.75723C22.7215 6.92643 22.9424 7.16895 23.0854 7.45729C23.114 7.51444 23.1275 7.57795 23.1246 7.64178C23.1218 7.70561 23.1026 7.76766 23.0691 7.82203C23.0355 7.8764 22.9886 7.92128 22.9328 7.95243C22.877 7.98358 22.8142 7.99996 22.7503 8.00001Z" fill="#FBB540"/>
<path d="M10.375 11H8.125V9.875H10C10.0995 9.875 10.1948 9.91451 10.2652 9.98483C10.3355 10.0552 10.375 10.1505 10.375 10.25V11Z" fill="#D8595A"/>
<path d="M15.625 11H17.875V9.875H16C15.9005 9.875 15.8052 9.91451 15.7348 9.98483C15.6645 10.0552 15.625 10.1505 15.625 10.25V11Z" fill="#D8595A"/>
<path d="M20.125 17.375V11H5.875V17.375L5.125 20H7.5693C7.96595 20 8.35555 19.8951 8.69861 19.696C9.04168 19.497 9.32602 19.2107 9.52281 18.8663L10.186 17.7057C10.2434 17.6052 10.3264 17.5217 10.4265 17.4636C10.5265 17.4056 10.6402 17.375 10.7559 17.375H15.2441C15.3598 17.375 15.4735 17.4056 15.5735 17.4636C15.6736 17.5217 15.7566 17.6052 15.814 17.7057L16.4772 18.8663C16.674 19.2107 16.9583 19.4969 17.3014 19.696C17.6444 19.8951 18.034 20 18.4307 20H20.875L20.125 17.375Z" fill="url(#paint8_radial)"/>
<path d="M11.125 13.25H10.375V12.5H8.875V13.25H8.125V14.75H8.875V15.5H10.375V14.75H11.125V13.25Z" fill="url(#paint9_radial)"/>
<path d="M14.5 14.75C14.9142 14.75 15.25 14.4142 15.25 14C15.25 13.5858 14.9142 13.25 14.5 13.25C14.0858 13.25 13.75 13.5858 13.75 14C13.75 14.4142 14.0858 14.75 14.5 14.75Z" fill="#FBB540"/>
<path d="M16 13.25C16.4142 13.25 16.75 12.9142 16.75 12.5C16.75 12.0858 16.4142 11.75 16 11.75C15.5858 11.75 15.25 12.0858 15.25 12.5C15.25 12.9142 15.5858 13.25 16 13.25Z" fill="#2AD3B3"/>
<path d="M16 16.25C16.4142 16.25 16.75 15.9142 16.75 15.5C16.75 15.0858 16.4142 14.75 16 14.75C15.5858 14.75 15.25 15.0858 15.25 15.5C15.25 15.9142 15.5858 16.25 16 16.25Z" fill="#FAA6B2"/>
<path d="M17.5 14.75C17.9142 14.75 18.25 14.4142 18.25 14C18.25 13.5858 17.9142 13.25 17.5 13.25C17.0858 13.25 16.75 13.5858 16.75 14C16.75 14.4142 17.0858 14.75 17.5 14.75Z" fill="#2CBFF4"/>
<path d="M4.75 21.5L6.625 18.875C6.96675 18.7611 7.27232 18.5588 7.51072 18.2888C7.74913 18.0187 7.9119 17.6904 7.98255 17.3372L8.125 16.625L8.93936 15.8106C9.03785 15.7121 9.11597 15.5952 9.16927 15.4665C9.22257 15.3379 9.25 15.1999 9.25 15.0606C9.24999 14.7793 9.13824 14.5096 8.93933 14.3107C8.74043 14.1118 8.47065 14 8.18936 14H8.12205C7.88121 14 7.64754 14.082 7.45947 14.2324L5.875 15.5V12.5L7 11H8.875V10.3438C8.875 10.12 8.78611 9.90536 8.62787 9.74713C8.46964 9.58889 8.25503 9.5 8.03125 9.5H6.27194C6.03317 9.49999 5.79786 9.55698 5.58555 9.66623C5.37325 9.77548 5.19009 9.93384 5.05131 10.1281L3.90442 11.7338C3.7227 11.9882 3.625 12.2931 3.625 12.6057V16.625L2.125 18.875L4.75 21.5Z" fill="url(#paint10_linear)"/>
<path d="M21.25 21.5L19.375 18.875C19.0332 18.7611 18.7277 18.5588 18.4893 18.2888C18.2509 18.0187 18.0881 17.6904 18.0175 17.3372L17.875 16.625L17.0606 15.8106C16.9622 15.7121 16.884 15.5952 16.8307 15.4665C16.7774 15.3379 16.75 15.1999 16.75 15.0606C16.75 14.7793 16.8618 14.5096 17.0607 14.3107C17.2596 14.1118 17.5293 14 17.8106 14H17.878C18.1188 14 18.3525 14.082 18.5405 14.2324L20.125 15.5V12.5L19 11H17.125V10.3438C17.125 10.12 17.2139 9.90536 17.3721 9.74713C17.5304 9.58889 17.745 9.5 17.9688 9.5H19.7281C19.9668 9.49999 20.2021 9.55698 20.4144 9.66623C20.6267 9.77548 20.8099 9.93384 20.9487 10.1281L22.0956 11.7338C22.2773 11.9882 22.375 12.2931 22.375 12.6057V16.625L23.875 18.875L21.25 21.5Z" fill="url(#paint11_linear)"/>
<path d="M12.25 16.25H11.5C11.4005 16.25 11.3052 16.2105 11.2348 16.1402C11.1645 16.0698 11.125 15.9745 11.125 15.875C11.125 15.7755 11.1645 15.6802 11.2348 15.6098C11.3052 15.5395 11.4005 15.5 11.5 15.5H12.25C12.3495 15.5 12.4448 15.5395 12.5152 15.6098C12.5855 15.6802 12.625 15.7755 12.625 15.875C12.625 15.9745 12.5855 16.0698 12.5152 16.1402C12.4448 16.2105 12.3495 16.25 12.25 16.25Z" fill="url(#paint12_radial)"/>
<path d="M14.5 16.25H13.75C13.6505 16.25 13.5552 16.2105 13.4848 16.1402C13.4145 16.0698 13.375 15.9745 13.375 15.875C13.375 15.7755 13.4145 15.6802 13.4848 15.6098C13.5552 15.5395 13.6505 15.5 13.75 15.5H14.5C14.5995 15.5 14.6948 15.5395 14.7652 15.6098C14.8355 15.6802 14.875 15.7755 14.875 15.875C14.875 15.9745 14.8355 16.0698 14.7652 16.1402C14.6948 16.2105 14.5995 16.25 14.5 16.25Z" fill="url(#paint13_radial)"/>
<path d="M14.125 11H11.875L12.25 9.875H13.75L14.125 11Z" fill="url(#paint14_radial)"/>
<path d="M3.99972 9.125C3.93581 9.12496 3.87297 9.10858 3.81717 9.07743C3.76136 9.04628 3.71445 9.00138 3.68088 8.94699C3.6473 8.89261 3.62818 8.83055 3.62534 8.76671C3.62249 8.70286 3.63601 8.63934 3.66461 8.58219C3.80758 8.29386 4.02848 8.05136 4.30225 7.88218C4.57602 7.713 4.89172 7.62391 5.21355 7.625H5.5C5.59946 7.625 5.69484 7.66451 5.76516 7.73484C5.83549 7.80516 5.875 7.90055 5.875 8C5.875 8.09946 5.83549 8.19484 5.76516 8.26517C5.69484 8.33549 5.59946 8.375 5.5 8.375H5.21355C5.03109 8.37439 4.8521 8.42491 4.69689 8.52084C4.54168 8.61676 4.41645 8.75425 4.33539 8.91772C4.30422 8.98005 4.25631 9.03246 4.19702 9.06907C4.13772 9.10568 4.0694 9.12505 3.99972 9.125Z" fill="#FBB540"/>
<path d="M3.24972 8C3.18581 7.99996 3.12297 7.98358 3.06717 7.95243C3.01136 7.92128 2.96445 7.87638 2.93088 7.82199C2.8973 7.76761 2.87818 7.70555 2.87534 7.64171C2.87249 7.57786 2.88601 7.51434 2.91461 7.45719C3.05758 7.16886 3.27848 6.92636 3.55225 6.75718C3.82602 6.588 4.14172 6.49891 4.46355 6.5H4.75C4.84946 6.5 4.94484 6.53951 5.01517 6.60984C5.08549 6.68016 5.125 6.77555 5.125 6.875C5.125 6.97446 5.08549 7.06984 5.01517 7.14017C4.94484 7.21049 4.84946 7.25 4.75 7.25H4.46355C4.28109 7.24939 4.10211 7.29991 3.94689 7.39584C3.79168 7.49176 3.66645 7.62925 3.58539 7.79272C3.55422 7.85505 3.50631 7.90746 3.44702 7.94407C3.38772 7.98068 3.3194 8.00005 3.24972 8Z" fill="#FBB540"/>
<path d="M22.0003 9.12501C21.9306 9.12505 21.8623 9.10567 21.803 9.06904C21.7437 9.03241 21.6958 8.97998 21.6646 8.91764C21.5835 8.75418 21.4583 8.61671 21.3031 8.52081C21.1479 8.4249 20.9689 8.37439 20.7865 8.37501H20.5C20.4005 8.37501 20.3052 8.3355 20.2348 8.26518C20.1645 8.19485 20.125 8.09947 20.125 8.00001C20.125 7.90055 20.1645 7.80517 20.2348 7.73484C20.3052 7.66452 20.4005 7.62501 20.5 7.62501H20.7865C21.1083 7.62392 21.424 7.71303 21.6978 7.88223C21.9715 8.05143 22.1924 8.29395 22.3354 8.58229C22.364 8.63944 22.3775 8.70295 22.3746 8.76678C22.3718 8.83061 22.3526 8.89266 22.3191 8.94703C22.2855 9.0014 22.2386 9.04628 22.1828 9.07743C22.127 9.10858 22.0642 9.12496 22.0003 9.12501Z" fill="#FBB540"/>
<path d="M22.7503 8.00001C22.6806 8.00005 22.6123 7.98067 22.553 7.94404C22.4937 7.90741 22.4458 7.85498 22.4146 7.79263C22.3335 7.62918 22.2083 7.49171 22.0531 7.39581C21.8979 7.2999 21.7189 7.24939 21.5365 7.25001H21.25C21.1505 7.25001 21.0552 7.2105 20.9848 7.14017C20.9145 7.06985 20.875 6.97447 20.875 6.87501C20.875 6.77555 20.9145 6.68017 20.9848 6.60984C21.0552 6.53952 21.1505 6.50001 21.25 6.50001H21.5365C21.8583 6.49892 22.174 6.58803 22.4478 6.75723C22.7215 6.92643 22.9424 7.16895 23.0854 7.45729C23.114 7.51444 23.1275 7.57795 23.1246 7.64178C23.1218 7.70561 23.1026 7.76766 23.0691 7.82203C23.0355 7.8764 22.9886 7.92128 22.9328 7.95243C22.877 7.98358 22.8142 7.99996 22.7503 8.00001Z" fill="#FBB540"/>
<path d="M11.375 11H9.125V9.875H11C11.0995 9.875 11.1948 9.91451 11.2652 9.98483C11.3355 10.0552 11.375 10.1505 11.375 10.25V11Z" fill="#D8595A"/>
<path d="M16.625 11H18.875V9.875H17C16.9005 9.875 16.8052 9.91451 16.7348 9.98483C16.6645 10.0552 16.625 10.1505 16.625 10.25V11Z" fill="#D8595A"/>
<path d="M21.125 17.375V11H6.875V17.375L6.125 20H8.5693C8.96595 20 9.35555 19.8951 9.69861 19.696C10.0417 19.497 10.326 19.2107 10.5228 18.8663L11.186 17.7057C11.2434 17.6052 11.3264 17.5217 11.4265 17.4636C11.5265 17.4056 11.6402 17.375 11.7559 17.375H16.2441C16.3598 17.375 16.4735 17.4056 16.5735 17.4636C16.6736 17.5217 16.7566 17.6052 16.814 17.7057L17.4772 18.8663C17.674 19.2107 17.9583 19.4969 18.3014 19.696C18.6444 19.8951 19.034 20 19.4307 20H21.875L21.125 17.375Z" fill="url(#paint15_radial)"/>
<path d="M12.125 13.25H11.375V12.5H9.875V13.25H9.125V14.75H9.875V15.5H11.375V14.75H12.125V13.25Z" fill="url(#paint16_radial)"/>
<path d="M15.5 14.75C15.9142 14.75 16.25 14.4142 16.25 14C16.25 13.5858 15.9142 13.25 15.5 13.25C15.0858 13.25 14.75 13.5858 14.75 14C14.75 14.4142 15.0858 14.75 15.5 14.75Z" fill="#FBB540"/>
<path d="M17 13.25C17.4142 13.25 17.75 12.9142 17.75 12.5C17.75 12.0858 17.4142 11.75 17 11.75C16.5858 11.75 16.25 12.0858 16.25 12.5C16.25 12.9142 16.5858 13.25 17 13.25Z" fill="#2AD3B3"/>
<path d="M17 16.25C17.4142 16.25 17.75 15.9142 17.75 15.5C17.75 15.0858 17.4142 14.75 17 14.75C16.5858 14.75 16.25 15.0858 16.25 15.5C16.25 15.9142 16.5858 16.25 17 16.25Z" fill="#FAA6B2"/>
<path d="M18.5 14.75C18.9142 14.75 19.25 14.4142 19.25 14C19.25 13.5858 18.9142 13.25 18.5 13.25C18.0858 13.25 17.75 13.5858 17.75 14C17.75 14.4142 18.0858 14.75 18.5 14.75Z" fill="#2CBFF4"/>
<path d="M5.75 21.5L7.625 18.875C7.96675 18.7611 8.27232 18.5588 8.51072 18.2888C8.74913 18.0187 8.9119 17.6904 8.98255 17.3372L9.125 16.625L9.93936 15.8106C10.0378 15.7121 10.116 15.5952 10.1693 15.4665C10.2226 15.3379 10.25 15.1999 10.25 15.0606C10.25 14.7793 10.1382 14.5096 9.93933 14.3107C9.74043 14.1118 9.47065 14 9.18936 14H9.12205C8.88121 14 8.64754 14.082 8.45947 14.2324L6.875 15.5V12.5L8 11H9.875V10.3438C9.875 10.12 9.78611 9.90536 9.62787 9.74713C9.46964 9.58889 9.25503 9.5 9.03125 9.5H7.27194C7.03317 9.49999 6.79786 9.55698 6.58555 9.66623C6.37325 9.77548 6.19009 9.93384 6.05131 10.1281L4.90442 11.7338C4.7227 11.9882 4.625 12.2931 4.625 12.6057V16.625L3.125 18.875L5.75 21.5Z" fill="url(#paint17_linear)"/>
<path d="M22.25 21.5L20.375 18.875C20.0332 18.7611 19.7277 18.5588 19.4893 18.2888C19.2509 18.0187 19.0881 17.6904 19.0175 17.3372L18.875 16.625L18.0606 15.8106C17.9622 15.7121 17.884 15.5952 17.8307 15.4665C17.7774 15.3379 17.75 15.1999 17.75 15.0606C17.75 14.7793 17.8618 14.5096 18.0607 14.3107C18.2596 14.1118 18.5293 14 18.8106 14H18.878C19.1188 14 19.3525 14.082 19.5405 14.2324L21.125 15.5V12.5L20 11H18.125V10.3438C18.125 10.12 18.2139 9.90536 18.3721 9.74713C18.5304 9.58889 18.745 9.5 18.9688 9.5H20.7281C20.9668 9.49999 21.2021 9.55698 21.4144 9.66623C21.6267 9.77548 21.8099 9.93384 21.9487 10.1281L23.0956 11.7338C23.2773 11.9882 23.375 12.2931 23.375 12.6057V16.625L24.875 18.875L22.25 21.5Z" fill="url(#paint18_linear)"/>
<path d="M13.25 16.25H12.5C12.4005 16.25 12.3052 16.2105 12.2348 16.1402C12.1645 16.0698 12.125 15.9745 12.125 15.875C12.125 15.7755 12.1645 15.6802 12.2348 15.6098C12.3052 15.5395 12.4005 15.5 12.5 15.5H13.25C13.3495 15.5 13.4448 15.5395 13.5152 15.6098C13.5855 15.6802 13.625 15.7755 13.625 15.875C13.625 15.9745 13.5855 16.0698 13.5152 16.1402C13.4448 16.2105 13.3495 16.25 13.25 16.25Z" fill="url(#paint19_radial)"/>
<path d="M15.5 16.25H14.75C14.6505 16.25 14.5552 16.2105 14.4848 16.1402C14.4145 16.0698 14.375 15.9745 14.375 15.875C14.375 15.7755 14.4145 15.6802 14.4848 15.6098C14.5552 15.5395 14.6505 15.5 14.75 15.5H15.5C15.5995 15.5 15.6948 15.5395 15.7652 15.6098C15.8355 15.6802 15.875 15.7755 15.875 15.875C15.875 15.9745 15.8355 16.0698 15.7652 16.1402C15.6948 16.2105 15.5995 16.25 15.5 16.25Z" fill="url(#paint20_radial)"/>
<path d="M15.125 11H12.875L13.25 9.875H14.75L15.125 11Z" fill="url(#paint21_radial)"/>
<path d="M4.99972 9.125C4.93581 9.12496 4.87297 9.10858 4.81717 9.07743C4.76136 9.04628 4.71445 9.00138 4.68088 8.94699C4.6473 8.89261 4.62818 8.83055 4.62534 8.76671C4.62249 8.70286 4.63601 8.63934 4.66461 8.58219C4.80758 8.29386 5.02848 8.05136 5.30225 7.88218C5.57602 7.713 5.89172 7.62391 6.21355 7.625H6.5C6.59946 7.625 6.69484 7.66451 6.76516 7.73484C6.83549 7.80516 6.875 7.90055 6.875 8C6.875 8.09946 6.83549 8.19484 6.76516 8.26517C6.69484 8.33549 6.59946 8.375 6.5 8.375H6.21355C6.03109 8.37439 5.8521 8.42491 5.69689 8.52084C5.54168 8.61676 5.41645 8.75425 5.33539 8.91772C5.30422 8.98005 5.25631 9.03246 5.19702 9.06907C5.13772 9.10568 5.0694 9.12505 4.99972 9.125Z" fill="#FBB540"/>
<path d="M4.24972 8C4.18581 7.99996 4.12297 7.98358 4.06717 7.95243C4.01136 7.92128 3.96445 7.87638 3.93088 7.82199C3.8973 7.76761 3.87818 7.70555 3.87534 7.64171C3.87249 7.57786 3.88601 7.51434 3.91461 7.45719C4.05758 7.16886 4.27848 6.92636 4.55225 6.75718C4.82602 6.588 5.14172 6.49891 5.46355 6.5H5.75C5.84946 6.5 5.94484 6.53951 6.01517 6.60984C6.08549 6.68016 6.125 6.77555 6.125 6.875C6.125 6.97446 6.08549 7.06984 6.01517 7.14017C5.94484 7.21049 5.84946 7.25 5.75 7.25H5.46355C5.28109 7.24939 5.10211 7.29991 4.94689 7.39584C4.79168 7.49176 4.66645 7.62925 4.58539 7.79272C4.55422 7.85505 4.50631 7.90746 4.44702 7.94407C4.38772 7.98068 4.3194 8.00005 4.24972 8Z" fill="#FBB540"/>
<path d="M23.0003 9.12501C22.9306 9.12505 22.8623 9.10567 22.803 9.06904C22.7437 9.03241 22.6958 8.97998 22.6646 8.91764C22.5835 8.75418 22.4583 8.61671 22.3031 8.52081C22.1479 8.4249 21.9689 8.37439 21.7865 8.37501H21.5C21.4005 8.37501 21.3052 8.3355 21.2348 8.26518C21.1645 8.19485 21.125 8.09947 21.125 8.00001C21.125 7.90055 21.1645 7.80517 21.2348 7.73484C21.3052 7.66452 21.4005 7.62501 21.5 7.62501H21.7865C22.1083 7.62392 22.424 7.71303 22.6978 7.88223C22.9715 8.05143 23.1924 8.29395 23.3354 8.58229C23.364 8.63944 23.3775 8.70295 23.3746 8.76678C23.3718 8.83061 23.3526 8.89266 23.3191 8.94703C23.2855 9.0014 23.2386 9.04628 23.1828 9.07743C23.127 9.10858 23.0642 9.12496 23.0003 9.12501Z" fill="#FBB540"/>
<path d="M23.7503 8.00001C23.6806 8.00005 23.6123 7.98067 23.553 7.94404C23.4937 7.90741 23.4458 7.85498 23.4146 7.79263C23.3335 7.62918 23.2083 7.49171 23.0531 7.39581C22.8979 7.2999 22.7189 7.24939 22.5365 7.25001H22.25C22.1505 7.25001 22.0552 7.2105 21.9848 7.14017C21.9145 7.06985 21.875 6.97447 21.875 6.87501C21.875 6.77555 21.9145 6.68017 21.9848 6.60984C22.0552 6.53952 22.1505 6.50001 22.25 6.50001H22.5365C22.8583 6.49892 23.174 6.58803 23.4478 6.75723C23.7215 6.92643 23.9424 7.16895 24.0854 7.45729C24.114 7.51444 24.1275 7.57795 24.1246 7.64178C24.1218 7.70561 24.1026 7.76766 24.0691 7.82203C24.0355 7.8764 23.9886 7.92128 23.9328 7.95243C23.877 7.98358 23.8142 7.99996 23.7503 8.00001Z" fill="#FBB540"/>
<defs>
<linearGradient id="paint0_linear" x1="14" y1="0" x2="14" y2="29" gradientUnits="userSpaceOnUse">
<stop stop-color="#0466C8"/>
<stop offset="1" stop-color="#001233"/>
</linearGradient>
<radialGradient id="paint1_radial" cx="0" cy="0" r="1" gradientUnits="userSpaceOnUse" gradientTransform="translate(13 15.5) rotate(90) scale(4.5 7.875)">
<stop stop-color="#77B6F4"/>
<stop offset="1" stop-color="#3298FF"/>
</radialGradient>
<radialGradient id="paint2_radial" cx="0" cy="0" r="1" gradientUnits="userSpaceOnUse" gradientTransform="translate(9.625 14) rotate(90) scale(1.5)">
<stop stop-color="#026CA2"/>
<stop offset="1" stop-color="#045EB8"/>
</radialGradient>
<linearGradient id="paint3_linear" x1="5.6875" y1="9.5" x2="5.6875" y2="21.5" gradientUnits="userSpaceOnUse">
<stop stop-color="#F4DCB6"/>
<stop offset="1" stop-color="#EFC4A6"/>
</linearGradient>
<linearGradient id="paint4_linear" x1="20.3125" y1="9.5" x2="20.3125" y2="21.5" gradientUnits="userSpaceOnUse">
<stop stop-color="#F4DCB6"/>
<stop offset="1" stop-color="#EFC4A6"/>
</linearGradient>
<radialGradient id="paint5_radial" cx="0" cy="0" r="1" gradientUnits="userSpaceOnUse" gradientTransform="translate(11.875 15.875) rotate(90) scale(0.375 0.75)">
<stop stop-color="#026CA2"/>
<stop offset="1" stop-color="#045EB8"/>
</radialGradient>
<radialGradient id="paint6_radial" cx="0" cy="0" r="1" gradientUnits="userSpaceOnUse" gradientTransform="translate(14.125 15.875) rotate(90) scale(0.375 0.75)">
<stop stop-color="#026CA2"/>
<stop offset="1" stop-color="#045EB8"/>
</radialGradient>
<radialGradient id="paint7_radial" cx="0" cy="0" r="1" gradientUnits="userSpaceOnUse" gradientTransform="translate(13 10.4375) rotate(90) scale(0.5625 1.125)">
<stop stop-color="#026CA2"/>
<stop offset="1" stop-color="#045EB8"/>
</radialGradient>
<radialGradient id="paint8_radial" cx="0" cy="0" r="1" gradientUnits="userSpaceOnUse" gradientTransform="translate(13 15.5) rotate(90) scale(4.5 7.875)">
<stop stop-color="#77B6F4"/>
<stop offset="1" stop-color="#3298FF"/>
</radialGradient>
<radialGradient id="paint9_radial" cx="0" cy="0" r="1" gradientUnits="userSpaceOnUse" gradientTransform="translate(9.625 14) rotate(90) scale(1.5)">
<stop stop-color="#026CA2"/>
<stop offset="1" stop-color="#045EB8"/>
</radialGradient>
<linearGradient id="paint10_linear" x1="5.6875" y1="9.5" x2="5.6875" y2="21.5" gradientUnits="userSpaceOnUse">
<stop stop-color="#F4DCB6"/>
<stop offset="1" stop-color="#EFC4A6"/>
</linearGradient>
<linearGradient id="paint11_linear" x1="20.3125" y1="9.5" x2="20.3125" y2="21.5" gradientUnits="userSpaceOnUse">
<stop stop-color="#F4DCB6"/>
<stop offset="1" stop-color="#EFC4A6"/>
</linearGradient>
<radialGradient id="paint12_radial" cx="0" cy="0" r="1" gradientUnits="userSpaceOnUse" gradientTransform="translate(11.875 15.875) rotate(90) scale(0.375 0.75)">
<stop stop-color="#026CA2"/>
<stop offset="1" stop-color="#045EB8"/>
</radialGradient>
<radialGradient id="paint13_radial" cx="0" cy="0" r="1" gradientUnits="userSpaceOnUse" gradientTransform="translate(14.125 15.875) rotate(90) scale(0.375 0.75)">
<stop stop-color="#026CA2"/>
<stop offset="1" stop-color="#045EB8"/>
</radialGradient>
<radialGradient id="paint14_radial" cx="0" cy="0" r="1" gradientUnits="userSpaceOnUse" gradientTransform="translate(13 10.4375) rotate(90) scale(0.5625 1.125)">
<stop stop-color="#026CA2"/>
<stop offset="1" stop-color="#045EB8"/>
</radialGradient>
<radialGradient id="paint15_radial" cx="0" cy="0" r="1" gradientUnits="userSpaceOnUse" gradientTransform="translate(14 15.5) rotate(90) scale(4.5 7.875)">
<stop stop-color="#77B6F4"/>
<stop offset="1" stop-color="#3298FF"/>
</radialGradient>
<radialGradient id="paint16_radial" cx="0" cy="0" r="1" gradientUnits="userSpaceOnUse" gradientTransform="translate(10.625 14) rotate(90) scale(1.5)">
<stop stop-color="#026CA2"/>
<stop offset="1" stop-color="#045EB8"/>
</radialGradient>
<linearGradient id="paint17_linear" x1="6.6875" y1="9.5" x2="6.6875" y2="21.5" gradientUnits="userSpaceOnUse">
<stop stop-color="#F4DCB6"/>
<stop offset="1" stop-color="#EFC4A6"/>
</linearGradient>
<linearGradient id="paint18_linear" x1="21.3125" y1="9.5" x2="21.3125" y2="21.5" gradientUnits="userSpaceOnUse">
<stop stop-color="#F4DCB6"/>
<stop offset="1" stop-color="#EFC4A6"/>
</linearGradient>
<radialGradient id="paint19_radial" cx="0" cy="0" r="1" gradientUnits="userSpaceOnUse" gradientTransform="translate(12.875 15.875) rotate(90) scale(0.375 0.75)">
<stop stop-color="#026CA2"/>
<stop offset="1" stop-color="#045EB8"/>
</radialGradient>
<radialGradient id="paint20_radial" cx="0" cy="0" r="1" gradientUnits="userSpaceOnUse" gradientTransform="translate(15.125 15.875) rotate(90) scale(0.375 0.75)">
<stop stop-color="#026CA2"/>
<stop offset="1" stop-color="#045EB8"/>
</radialGradient>
<radialGradient id="paint21_radial" cx="0" cy="0" r="1" gradientUnits="userSpaceOnUse" gradientTransform="translate(14 10.4375) rotate(90) scale(0.5625 1.125)">
<stop stop-color="#026CA2"/>
<stop offset="1" stop-color="#045EB8"/>
</radialGradient>
</defs>
</svg>
