<svg width="73" height="73" viewBox="0 0 73 73" fill="none" xmlns="http://www.w3.org/2000/svg">
<circle cx="36" cy="36" r="36" fill="#DEF9FF"/>
<path d="M22.57 2.648C18.081 4.468 14.053 7.144 10.599 10.597C7.144 14.051 4.471 18.08 2.65 22.568C0.892 26.904 0 31.486 0 36.186C0 40.885 0.892 45.467 2.65 49.801C4.471 54.29 7.145 58.319 10.599 61.772C14.053 65.227 18.08 67.901 22.57 69.721C26.906 71.481 31.487 72.37 36.187 72.37C40.887 72.37 45.467 71.478 49.803 69.721C54.291 67.901 58.321 65.227 61.774 61.772C65.229 58.319 67.903 54.292 69.723 49.801C71.481 45.467 72.371 40.885 72.371 36.186C72.371 31.486 71.48 26.904 69.723 22.568C67.903 18.08 65.227 14.05 61.774 10.597C58.321 7.144 54.295 4.468 49.803 2.648C45.467 0.891 40.887 0 36.187 0C31.487 0 26.906 0.891 22.57 2.648ZM9.044 51.419C7.301 50.325 5.695 49.065 4.273 47.581C2.101 41.469 1.733 34.852 3.172 28.571C3.849 27.236 4.619 25.954 5.49 24.726C5.759 24.347 6.008 23.952 6.296 23.584L14.462 28.416C14.462 28.48 14.462 28.55 14.462 28.621C14.441 33.013 14.887 37.373 15.775 41.67C15.778 41.69 15.781 41.701 15.785 41.719L9.452 51.649C9.314 51.579 9.177 51.503 9.044 51.419ZM33.324 68.206C34.733 68.925 36.182 69.532 37.671 70.026C31.346 70.301 24.958 68.819 19.311 65.579L33 68.018C33.105 68.085 33.212 68.149 33.324 68.206ZM33.274 65.735L17.12 62.856C15.23 60.561 13.53 58.133 12.069 55.538C11.697 54.878 11.282 54.237 10.967 53.548L17.294 43.628C17.434 43.663 17.59 43.7 17.767 43.747C21.725 44.806 25.753 45.559 29.809 46.149C30.046 46.182 30.244 46.211 30.413 46.229L37.997 59.342C36.681 61.192 35.35 63.032 33.99 64.852C33.764 65.155 33.524 65.446 33.274 65.735ZM60.15 60.149C58.864 61.436 57.499 62.596 56.07 63.63C55.833 61.736 55.424 59.88 54.847 58.067L62.939 42.971C65.168 41.956 67.318 40.805 69.314 39.378C69.575 39.193 69.792 38.986 69.96 38.76C69.374 46.561 66.104 54.196 60.15 60.149ZM59.791 40.571C60.092 41.145 60.389 41.725 60.687 42.313L52.871 56.893C52.826 56.903 52.783 56.913 52.738 56.919C48.513 57.708 44.254 58.128 39.959 58.148L32.159 44.661C33.373 42.407 34.576 40.144 35.769 37.88C36.579 36.344 37.375 34.798 38.17 33.253L54.313 31.595C56.29 34.495 58.163 37.457 59.791 40.571ZM56.516 23.277C55.75 25.3 54.93 27.302 54.115 29.308L38.389 30.923C38.201 30.675 38.006 30.431 37.801 30.198C35.944 28.095 34.075 26.005 32.209 23.909C32.226 23.888 32.243 23.872 32.26 23.853C31.507 23.101 30.752 22.349 29.999 21.595L34.377 8.414C34.679 8.334 34.983 8.267 35.29 8.234C37.67 7.992 40.053 7.718 42.439 7.58C43.9 7.498 45.369 7.451 46.855 7.556L57.687 19.765C57.314 20.943 56.95 22.124 56.516 23.277ZM60.15 12.221C63.138 15.211 65.452 18.623 67.088 22.268C65.064 20.875 62.9 19.729 60.625 18.795C60.271 18.649 59.908 18.52 59.539 18.393L48.877 6.376C48.951 5.857 48.99 5.337 49.006 4.813C53.062 6.464 56.864 8.936 60.15 12.221ZM25.334 4.182C25.376 4.213 25.396 4.239 25.42 4.246C27.857 5.088 30.074 6.328 32.164 7.799L28.074 20.116C28.053 20.122 28.033 20.128 28.013 20.137C27.176 20.483 26.323 20.793 25.499 21.168C22.104 22.711 18.794 24.42 15.676 26.469L7.605 21.694C7.617 21.442 7.66 21.186 7.746 20.958C8.288 19.514 8.821 18.062 9.434 16.647C9.906 15.557 10.444 14.504 11.031 13.475C11.415 13.051 11.813 12.631 12.223 12.221C16.056 8.389 20.586 5.668 25.409 4.059C25.384 4.098 25.358 4.139 25.334 4.182Z" fill="#022E5A"/>
</svg>
